<svg width="48" height="48" viewBox="0 0 48 48" fill="none" xmlns="http://www.w3.org/2000/svg">
<circle cx="24" cy="24" r="24" fill="#FCEFFF"/>
<path d="M12.75 20.25V33H35.25V20.25H12.75ZM22.3286 28.7569C22.3956 28.8307 22.4472 28.9171 22.4804 29.0111C22.5136 29.1051 22.5277 29.2048 22.5219 29.3043C22.5161 29.4038 22.4906 29.5012 22.4467 29.5907C22.4029 29.6802 22.3417 29.7601 22.2666 29.8257C22.1915 29.8913 22.1041 29.9412 22.0095 29.9726C21.9149 30.004 21.815 30.0163 21.7156 30.0086C21.6162 30.001 21.5194 29.9736 21.4307 29.9281C21.342 29.8825 21.2633 29.8198 21.1991 29.7435L18.1425 26.2448L21.1999 22.7573C21.264 22.6805 21.3428 22.6174 21.4316 22.5716C21.5204 22.5258 21.6175 22.4982 21.7172 22.4904C21.8169 22.4827 21.9171 22.4949 22.0119 22.5264C22.1068 22.558 22.1944 22.6081 22.2696 22.674C22.3448 22.7399 22.4061 22.8201 22.4498 22.91C22.4935 22.9999 22.5189 23.0976 22.5243 23.1974C22.5297 23.2972 22.5151 23.3971 22.4814 23.4912C22.4477 23.5853 22.3955 23.6717 22.3279 23.7454L20.1353 26.2463L22.3286 28.7569ZM26.8286 29.7435C26.7645 29.8198 26.6858 29.8825 26.5971 29.9281C26.5084 29.9736 26.4115 30.001 26.3121 30.0086C26.2128 30.0163 26.1128 30.004 26.0182 29.9726C25.9236 29.9412 25.8362 29.8913 25.7612 29.8257C25.6861 29.7601 25.6248 29.6802 25.581 29.5907C25.5372 29.5012 25.5116 29.4038 25.5058 29.3043C25.5 29.2048 25.5142 29.1051 25.5474 29.0111C25.5805 28.9171 25.6321 28.8307 25.6991 28.7569L27.8925 26.2463L25.6999 23.7439C25.6323 23.6702 25.5801 23.5838 25.5463 23.4897C25.5126 23.3956 25.498 23.2957 25.5035 23.1959C25.5089 23.0961 25.5342 22.9984 25.5779 22.9085C25.6217 22.8186 25.683 22.7384 25.7581 22.6725C25.8333 22.6066 25.9209 22.5565 26.0158 22.5249C26.1107 22.4934 26.2109 22.4812 26.3105 22.4889C26.4102 22.4967 26.5073 22.5243 26.5962 22.5701C26.685 22.6159 26.7638 22.679 26.8279 22.7557L29.8853 26.2432L26.8286 29.7435Z" fill="#A13FB9"/>
<path d="M12.75 15V18.75H35.25V15H12.75ZM15 17.625C14.8517 17.625 14.7067 17.581 14.5833 17.4986C14.46 17.4162 14.3639 17.2991 14.3071 17.162C14.2503 17.025 14.2355 16.8742 14.2644 16.7287C14.2933 16.5832 14.3648 16.4496 14.4697 16.3447C14.5746 16.2398 14.7082 16.1683 14.8537 16.1394C14.9992 16.1105 15.15 16.1253 15.287 16.1821C15.4241 16.2389 15.5412 16.335 15.6236 16.4583C15.706 16.5817 15.75 16.7267 15.75 16.875C15.75 17.0739 15.671 17.2647 15.5303 17.4053C15.3897 17.546 15.1989 17.625 15 17.625ZM17.25 17.625C17.1017 17.625 16.9567 17.581 16.8333 17.4986C16.71 17.4162 16.6139 17.2991 16.5571 17.162C16.5003 17.025 16.4855 16.8742 16.5144 16.7287C16.5433 16.5832 16.6148 16.4496 16.7197 16.3447C16.8246 16.2398 16.9582 16.1683 17.1037 16.1394C17.2492 16.1105 17.4 16.1253 17.537 16.1821C17.6741 16.2389 17.7912 16.335 17.8736 16.4583C17.956 16.5817 18 16.7267 18 16.875C18 17.0739 17.921 17.2647 17.7803 17.4053C17.6397 17.546 17.4489 17.625 17.25 17.625ZM19.5 17.625C19.3517 17.625 19.2067 17.581 19.0833 17.4986C18.96 17.4162 18.8639 17.2991 18.8071 17.162C18.7503 17.025 18.7355 16.8742 18.7644 16.7287C18.7933 16.5832 18.8648 16.4496 18.9697 16.3447C19.0746 16.2398 19.2082 16.1683 19.3537 16.1394C19.4992 16.1105 19.65 16.1253 19.787 16.1821C19.9241 16.2389 20.0412 16.335 20.1236 16.4583C20.206 16.5817 20.25 16.7267 20.25 16.875C20.25 17.0739 20.171 17.2647 20.0303 17.4053C19.8897 17.546 19.6989 17.625 19.5 17.625Z" fill="#A13FB9"/>
</svg>
