<svg width="48" height="48" viewBox="0 0 48 48" fill="none" xmlns="http://www.w3.org/2000/svg">
<circle cx="24" cy="24" r="24" fill="#EBEAFF"/>
<path d="M33 19.875V14.625C29.698 16.9493 25.7862 18.2532 21.75 18.375H18.75V25.875C18.75 28.1625 18.75 31.65 22.9875 33.3375H23.25C23.431 33.3448 23.6085 33.2863 23.7497 33.1729C23.8909 33.0595 23.9864 32.8989 24.0184 32.7206C24.0504 32.5423 24.0168 32.3585 23.9238 32.2031C23.8308 32.0476 23.6847 31.9311 23.5125 31.875C20.25 30.6 20.25 28.0875 20.25 25.875H21.75C25.8052 25.8857 29.7494 27.2005 33 29.625V24.375C33.5967 24.375 34.169 24.1379 34.591 23.716C35.0129 23.294 35.25 22.7217 35.25 22.125C35.25 21.5283 35.0129 20.956 34.591 20.534C34.169 20.1121 33.5967 19.875 33 19.875ZM12.75 20.625V23.625C12.75 24.2217 12.9871 24.794 13.409 25.216C13.831 25.6379 14.4033 25.875 15 25.875H17.25V18.375H15C14.4033 18.375 13.831 18.6121 13.409 19.034C12.9871 19.456 12.75 20.0283 12.75 20.625Z" fill="#5C50E4"/>
</svg>
