<svg width="48" height="48" viewBox="0 0 48 48" fill="none" xmlns="http://www.w3.org/2000/svg">
<circle cx="24" cy="24" r="24" fill="#FFF9E8"/>
<path d="M12.75 20.25V33H35.25V20.25H12.75ZM24.75 30H17.25C17.0511 30 16.8603 29.921 16.7197 29.7803C16.579 29.6397 16.5 29.4489 16.5 29.25C16.5 29.0511 16.579 28.8603 16.7197 28.7197C16.8603 28.579 17.0511 28.5 17.25 28.5H24.75C24.9489 28.5 25.1397 28.579 25.2803 28.7197C25.421 28.8603 25.5 29.0511 25.5 29.25C25.5 29.4489 25.421 29.6397 25.2803 29.7803C25.1397 29.921 24.9489 30 24.75 30ZM30.75 27H17.25C17.0511 27 16.8603 26.921 16.7197 26.7803C16.579 26.6397 16.5 26.4489 16.5 26.25C16.5 26.0511 16.579 25.8603 16.7197 25.7197C16.8603 25.579 17.0511 25.5 17.25 25.5H30.75C30.9489 25.5 31.1397 25.579 31.2803 25.7197C31.421 25.8603 31.5 26.0511 31.5 26.25C31.5 26.4489 31.421 26.6397 31.2803 26.7803C31.1397 26.921 30.9489 27 30.75 27ZM30.75 24H17.25C17.0511 24 16.8603 23.921 16.7197 23.7803C16.579 23.6397 16.5 23.4489 16.5 23.25C16.5 23.0511 16.579 22.8603 16.7197 22.7197C16.8603 22.579 17.0511 22.5 17.25 22.5H30.75C30.9489 22.5 31.1397 22.579 31.2803 22.7197C31.421 22.8603 31.5 23.0511 31.5 23.25C31.5 23.4489 31.421 23.6397 31.2803 23.7803C31.1397 23.921 30.9489 24 30.75 24Z" fill="#FFB900"/>
<path d="M12.75 15V18.75H35.25V15H12.75ZM15 17.625C14.8517 17.625 14.7067 17.581 14.5833 17.4986C14.46 17.4162 14.3639 17.2991 14.3071 17.162C14.2503 17.025 14.2355 16.8742 14.2644 16.7287C14.2933 16.5832 14.3648 16.4496 14.4697 16.3447C14.5746 16.2398 14.7082 16.1683 14.8537 16.1394C14.9992 16.1105 15.15 16.1253 15.287 16.1821C15.4241 16.2389 15.5412 16.335 15.6236 16.4583C15.706 16.5817 15.75 16.7267 15.75 16.875C15.75 17.0739 15.671 17.2647 15.5303 17.4053C15.3897 17.546 15.1989 17.625 15 17.625ZM17.25 17.625C17.1017 17.625 16.9567 17.581 16.8333 17.4986C16.71 17.4162 16.6139 17.2991 16.5571 17.162C16.5003 17.025 16.4855 16.8742 16.5144 16.7287C16.5433 16.5832 16.6148 16.4496 16.7197 16.3447C16.8246 16.2398 16.9582 16.1683 17.1037 16.1394C17.2492 16.1105 17.4 16.1253 17.537 16.1821C17.6741 16.2389 17.7912 16.335 17.8736 16.4583C17.956 16.5817 18 16.7267 18 16.875C18 17.0739 17.921 17.2647 17.7803 17.4053C17.6397 17.546 17.4489 17.625 17.25 17.625ZM19.5 17.625C19.3517 17.625 19.2067 17.581 19.0833 17.4986C18.96 17.4162 18.8639 17.2991 18.8071 17.162C18.7503 17.025 18.7355 16.8742 18.7644 16.7287C18.7933 16.5832 18.8648 16.4496 18.9697 16.3447C19.0746 16.2398 19.2082 16.1683 19.3537 16.1394C19.4992 16.1105 19.65 16.1253 19.787 16.1821C19.9241 16.2389 20.0412 16.335 20.1236 16.4583C20.206 16.5817 20.25 16.7267 20.25 16.875C20.25 17.0739 20.171 17.2647 20.0303 17.4053C19.8897 17.546 19.6989 17.625 19.5 17.625Z" fill="#FFB900"/>
</svg>
